<?xml version="1.0" encoding="utf-8"?>
<!-- Generator: Adobe Illustrator 22.0.1, SVG Export Plug-In . SVG Version: 6.00 Build 0)  -->
<svg version="1.1" id="Слой_1" xmlns="http://www.w3.org/2000/svg" xmlns:xlink="http://www.w3.org/1999/xlink" x="0px" y="0px"
	 viewBox="0 0 155.9 155.9" style="enable-background:new 0 0 155.9 155.9;" xml:space="preserve">
<style type="text/css">
	.st0{fill:none;stroke:#000000;stroke-width:2;stroke-miterlimit:10;}
</style>
<circle class="st0" cx="53.9" cy="118.7" r="8.8"/>
<circle class="st0" cx="53.9" cy="118.7" r="2.5"/>
<circle class="st0" cx="123.8" cy="118.7" r="8.8"/>
<circle class="st0" cx="123.8" cy="118.7" r="2.5"/>
<circle class="st0" cx="33.7" cy="118.7" r="8.8"/>
<circle class="st0" cx="33.7" cy="118.7" r="2.5"/>
<path class="st0" d="M115,110H63.3c-0.2,0-0.3,0-0.5-0.1l-4.5-1.5c-2.9-0.8-5.9-0.8-8.8-0.1l-5,1.5c-0.5,0.1-1,0.1-1.5,0l-4.4-1.4
	c-3.6-1-7.1-0.9-9.9,0.3l-3.6,1.3c-0.1,0.1-0.3,0.1-0.5,0.1h-12c-2.3,0-4.1-1.8-4.1-4.1v-6H115V110z"/>
<path class="st0" d="M24.9,118.7h-6.1c-1.9,0-3.5-1.6-3.5-3.5V110"/>
<line class="st0" x1="115" y1="118.7" x2="62.7" y2="118.7"/>
<path class="st0" d="M115,100V69.8h19.3c0.9,0,1.6,0.6,1.7,1.5c0.3,3.2,1.8,11.1,7.6,20.6c0.8,1.3,1.6,2.6,2.5,3.9
	c0.2,0.3,0.4,0.7,0.4,1.1v18c0,0.8-0.6,1.4-1.4,1.4h-12.5"/>
<path class="st0" d="M143.5,91.8h-18.2c-0.8,0-1.5-0.7-1.5-1.5V80.2c0-0.7,0.6-1.3,1.3-1.3h12.1"/>
<line class="st0" x1="146.4" y1="103.1" x2="141.1" y2="103.1"/>
<line class="st0" x1="115" y1="110" x2="123.4" y2="110"/>
</svg>
