<?xml version="1.0" encoding="utf-8"?>
<!-- Generator: Adobe Illustrator 22.0.1, SVG Export Plug-In . SVG Version: 6.00 Build 0)  -->
<svg version="1.1" id="Слой_1" xmlns="http://www.w3.org/2000/svg" xmlns:xlink="http://www.w3.org/1999/xlink" x="0px" y="0px"
	 viewBox="0 0 155.9 155.9" style="enable-background:new 0 0 155.9 155.9;" xml:space="preserve">
<style type="text/css">
	.st0{fill:none;stroke:#000000;stroke-width:2;stroke-miterlimit:10;}
</style>
<circle class="st0" cx="73.1" cy="117.6" r="8.8"/>
<circle class="st0" cx="73.1" cy="117.6" r="2.5"/>
<circle class="st0" cx="38.2" cy="117.6" r="8.8"/>
<circle class="st0" cx="38.2" cy="117.6" r="2.5"/>
<line class="st0" x1="33.8" y1="90.2" x2="45.3" y2="90.2"/>
<line class="st0" x1="47" y1="117.6" x2="64.3" y2="117.6"/>
<line class="st0" x1="42.7" y1="110.1" x2="68.6" y2="110.1"/>
<line class="st0" x1="38.5" y1="108.2" x2="72.4" y2="108.2"/>
<line class="st0" x1="37.8" y1="102.3" x2="37.8" y2="108.7"/>
<line class="st0" x1="73.1" y1="102.3" x2="73.1" y2="108.2"/>
<path class="st0" d="M67.5,74.7l2.3-10c0.5-2,1.8-3.6,3.7-4.4l31-13.2v-5.8c0-1.2,0.5-2.2,1.4-3l0,0c0.6-0.5,1.5-0.9,2.7-0.6l0,0
	c1.3,0.2,1.9,1,2.4,2.2c0.1,0.2,16.1,57.4,16.1,57.4l2.9,5.1c0,0,2.1,3.7,0,6.4c-2.1,2.7-7.3,4.5-7.3,4.5h-15.1"/>
<path class="st0" d="M76.8,74.7c0,0,0.8-7.5,5.1-9.2c4.3-1.7,14.4-6.7,14.4-6.7"/>
<polyline class="st0" points="105.2,54.3 119.6,97.2 127.1,97.2 "/>
<line class="st0" x1="111.9" y1="113.2" x2="119.2" y2="95.9"/>
<path class="st0" d="M102.1,55.8l5.5-2.6c0.3-0.1,1.7-1,2-1.3c0.9-0.9,2.2-6.9-4.8-4.9"/>
<path class="st0" d="M41.7,102.3H30.9c-2.1,0-3.8-1.7-3.8-3.8V87.9c0-2.5,2.1-4.6,4.6-4.6c10.7,0,21.3,0,32,0"/>
<path class="st0" d="M82.5,95.3c-1.3,0-5.7,0.1-12.3,0c-1.3,0-4.7-2.5-6-6.1c-0.6-1.6-0.5-2-0.4-7c0.1-4.1-0.4-7.6,0.5-7.6
	c5.7,0,8.7,0,11.8,0.1c2.6,0.1,1,4.2,2.9,9.3c0.8,2,1,1.7,2.1,4.1c1.4,3.2,1.5,6.7,1.5,10.4c0,2.1-1.7,3.8-3.8,3.8H48.3"/>
</svg>
